<svg width="293" height="265" viewBox="0 0 293 265" fill="none" xmlns="http://www.w3.org/2000/svg">
<ellipse cx="146.5" cy="132.5" rx="146.5" ry="132.5" fill="white"/>
<rect x="218" y="118" width="29" height="71" rx="3" transform="rotate(90 218 118)" fill="#00D4C4"/>
<rect x="168" y="97" width="27" height="71" rx="3" fill="#00D4C4"/>
<rect x="75" y="220" width="28" height="144" rx="14" transform="rotate(-90 75 220)" fill="#1E82E5"/>
<rect x="82" y="149" width="32" height="39" transform="rotate(-90 82 149)" fill="#1E82E5"/>
<rect x="75" y="71" width="28" height="144" rx="14" transform="rotate(-90 75 71)" fill="#1E82E5"/>
<ellipse cx="87" cy="92.5" rx="36" ry="49.5" fill="#1E82E5"/>
<ellipse cx="87" cy="171" rx="36" ry="49" fill="#1E82E5"/>
<ellipse cx="120" cy="94" rx="38" ry="23" fill="white"/>
<ellipse cx="120" cy="169" rx="38" ry="23" fill="white"/>
<g filter="url(#filter0_d_16_160)">
<path d="M119.186 174.918L119.997 174.367L120.503 174.168L120.466 174.417L119.904 174.995L119.08 175.633L118.38 176.031L118.13 176.005L118.449 175.565L119.186 174.918Z" fill="#1E82E5"/>
</g>
<g filter="url(#filter1_d_16_160)">
<path d="M119.492 168.918L118.681 168.367L118.176 168.168L118.212 168.417L118.774 168.995L119.598 169.633L120.299 170.031L120.548 170.005L120.229 169.565L119.492 168.918Z" fill="#1E82E5"/>
</g>
<g filter="url(#filter2_d_16_160)">
<path d="M126.186 168.918L126.997 168.367L127.503 168.168L127.466 168.417L126.904 168.995L126.08 169.633L125.38 170.031L125.13 170.005L125.449 169.565L126.186 168.918Z" fill="#1E82E5"/>
</g>
<rect x="108.5" y="82.5" width="3" height="3" fill="#00D4C4" stroke="#1E82E5"/>
<rect x="122.5" y="89.5" width="3" height="3" fill="#00D4C4" stroke="#1E82E5"/>
<rect x="115.5" y="89.5" width="3" height="3" fill="#00D4C4" stroke="#1E82E5"/>
<rect x="122.5" y="95.5" width="3" height="3" fill="#00D4C4" stroke="#1E82E5"/>
<rect x="115.5" y="95.5" width="3" height="3" fill="#00D4C4" stroke="#1E82E5"/>
<rect x="108.5" y="89.5" width="3" height="3" fill="#00D4C4" stroke="#1E82E5"/>
<rect x="129.5" y="89.5" width="3" height="3" fill="#00D4C4" stroke="#1E82E5"/>
<rect x="108.5" y="95.5" width="3" height="3" fill="#00D4C4" stroke="#1E82E5"/>
<rect x="122.5" y="102.5" width="3" height="3" fill="#00D4C4" stroke="#1E82E5"/>
<rect x="115.5" y="102.5" width="3" height="3" fill="#00D4C4" stroke="#1E82E5"/>
<rect x="129.5" y="95.5" width="3" height="3" fill="#00D4C4" stroke="#1E82E5"/>
<rect x="129.5" y="102.5" width="3" height="3" fill="#00D4C4" stroke="#1E82E5"/>
<rect x="129.5" y="82.5" width="3" height="3" fill="#00D4C4" stroke="#1E82E5"/>
<rect x="122.5" y="82.5" width="3" height="3" fill="#00D4C4" stroke="#1E82E5"/>
<rect x="115.5" y="82.5" width="3" height="3" fill="#00D4C4" stroke="#1E82E5"/>
<rect x="107.5" y="177.5" width="3" height="3" fill="#00D4C4" stroke="#1E82E5"/>
<rect x="121.5" y="164.5" width="3" height="3" fill="#00D4C4" stroke="#1E82E5"/>
<rect x="114.5" y="164.5" width="3" height="3" fill="#00D4C4" stroke="#1E82E5"/>
<rect x="121.5" y="170.5" width="3" height="3" fill="#00D4C4" stroke="#1E82E5"/>
<rect x="114.5" y="170.5" width="3" height="3" fill="#00D4C4" stroke="#1E82E5"/>
<rect x="107.5" y="164.5" width="3" height="3" fill="#00D4C4" stroke="#1E82E5"/>
<rect x="128.5" y="164.5" width="3" height="3" fill="#00D4C4" stroke="#1E82E5"/>
<rect x="107.5" y="170.5" width="3" height="3" fill="#00D4C4" stroke="#1E82E5"/>
<rect x="121.5" y="177.5" width="3" height="3" fill="#00D4C4" stroke="#1E82E5"/>
<rect x="114.5" y="177.5" width="3" height="3" fill="#00D4C4" stroke="#1E82E5"/>
<rect x="128.5" y="170.5" width="3" height="3" fill="#00D4C4" stroke="#1E82E5"/>
<rect x="128.5" y="177.5" width="3" height="3" fill="#00D4C4" stroke="#1E82E5"/>
<rect x="128.5" y="157.5" width="3" height="3" fill="#00D4C4" stroke="#1E82E5"/>
<rect x="121.5" y="157.5" width="3" height="3" fill="#00D4C4" stroke="#1E82E5"/>
<rect x="114.5" y="157.5" width="3" height="3" fill="#00D4C4" stroke="#1E82E5"/>
<path d="M146.5 260.5C67.6397 260.5 4.5 202.778 4.5 132.5C4.5 62.2221 67.6397 4.5 146.5 4.5C225.36 4.5 288.5 62.2221 288.5 132.5C288.5 202.778 225.36 260.5 146.5 260.5Z" stroke="#00D4C4" stroke-width="9"/>
<path d="M101.25 144.5L118.5 126.5" stroke="#00D4C4" stroke-linecap="round"/>
<path d="M81.1132 144.5L84 147.387L86.8868 144.5L84 141.613L81.1132 144.5ZM101 145C101.276 145 101.5 144.776 101.5 144.5C101.5 144.224 101.276 144 101 144V144.5V145ZM84 144.5V145H101V144.5V144H84V144.5Z" fill="#00D4C4"/>
<path d="M118.5 126C118.224 126 118 126.224 118 126.5C118 126.776 118.224 127 118.5 127V126.5V126ZM136.833 126.5C136.833 127.973 138.027 129.167 139.5 129.167C140.973 129.167 142.167 127.973 142.167 126.5C142.167 125.027 140.973 123.833 139.5 123.833C138.027 123.833 136.833 125.027 136.833 126.5ZM118.5 126.5V127H139.5V126.5V126H118.5V126.5Z" fill="#00D4C4"/>
<path d="M99 137L111 125" stroke="#00D4C4" stroke-linecap="round"/>
<path d="M111 103L115 99" stroke="#00D4C4" stroke-linecap="round"/>
<path d="M111 125V103" stroke="#00D4C4" stroke-linecap="round"/>
<path d="M99 137.5C99.2761 137.5 99.5 137.276 99.5 137C99.5 136.724 99.2761 136.5 99 136.5L99 137L99 137.5ZM86.6667 137C86.6667 135.527 85.4728 134.333 84 134.333C82.5272 134.333 81.3333 135.527 81.3333 137C81.3333 138.473 82.5272 139.667 84 139.667C85.4728 139.667 86.6667 138.473 86.6667 137ZM99 137L99 136.5L84 136.5L84 137L84 137.5L99 137.5L99 137Z" fill="#00D4C4"/>
<path d="M118.5 136L101 118" stroke="#00D4C4" stroke-linecap="round"/>
<path d="M81.1132 118L84 120.887L86.8868 118L84 115.113L81.1132 118ZM101 118.5C101.276 118.5 101.5 118.276 101.5 118C101.5 117.724 101.276 117.5 101 117.5V118V118.5ZM84 118V118.5H92.5V118V117.5H84V118ZM92.5 118V118.5H101V118V117.5H92.5V118Z" fill="#00D4C4"/>
<path d="M118.5 135.5C118.224 135.5 118 135.724 118 136C118 136.276 118.224 136.5 118.5 136.5V136V135.5ZM136.833 136C136.833 137.473 138.027 138.667 139.5 138.667C140.973 138.667 142.167 137.473 142.167 136C142.167 134.527 140.973 133.333 139.5 133.333C138.027 133.333 136.833 134.527 136.833 136ZM118.5 136V136.5H139.5V136V135.5H118.5V136Z" fill="#00D4C4"/>
<path d="M110 138L98 126" stroke="#00D4C4" stroke-linecap="round"/>
<path d="M114 164L110 160" stroke="#00D4C4" stroke-linecap="round"/>
<path d="M110 160V138" stroke="#00D4C4" stroke-linecap="round"/>
<path d="M98 126.5C98.2761 126.5 98.5 126.276 98.5 126C98.5 125.724 98.2761 125.5 98 125.5L98 126L98 126.5ZM86.6667 126C86.6667 124.527 85.4728 123.333 84 123.333C82.5272 123.333 81.3333 124.527 81.3333 126C81.3333 127.473 82.5272 128.667 84 128.667C85.4728 128.667 86.6667 127.473 86.6667 126ZM98 126L98 125.5L84 125.5L84 126L84 126.5L98 126.5L98 126Z" fill="#00D4C4"/>
<g filter="url(#filter3_d_16_160)">
<path d="M120.186 93.9182L120.997 93.3666L121.503 93.1684L121.466 93.4165L120.904 93.9947L120.08 94.6325L119.38 95.0315L119.13 95.0049L119.449 94.5653L120.186 93.9182Z" fill="#1E82E5"/>
</g>
<g filter="url(#filter4_d_16_160)">
<path d="M120.492 86.9182L119.681 86.3666L119.176 86.1684L119.212 86.4165L119.774 86.9947L120.598 87.6325L121.299 88.0315L121.548 88.0049L121.229 87.5653L120.492 86.9182Z" fill="#1E82E5"/>
</g>
<g filter="url(#filter5_d_16_160)">
<path d="M127.492 93.9182L126.681 93.3666L126.176 93.1684L126.212 93.4165L126.774 93.9947L127.598 94.6325L128.299 95.0315L128.548 95.0049L128.229 94.5653L127.492 93.9182Z" fill="#1E82E5"/>
</g>
<defs>
<filter id="filter0_d_16_160" x="114.13" y="174.168" width="10.3722" height="9.86304" filterUnits="userSpaceOnUse" color-interpolation-filters="sRGB">
<feFlood flood-opacity="0" result="BackgroundImageFix"/>
<feColorMatrix in="SourceAlpha" type="matrix" values="0 0 0 0 0 0 0 0 0 0 0 0 0 0 0 0 0 0 127 0" result="hardAlpha"/>
<feOffset dy="4"/>
<feGaussianBlur stdDeviation="2"/>
<feComposite in2="hardAlpha" operator="out"/>
<feColorMatrix type="matrix" values="0 0 0 0 0 0 0 0 0 0 0 0 0 0 0 0 0 0 0.25 0"/>
<feBlend mode="normal" in2="BackgroundImageFix" result="effect1_dropShadow_16_160"/>
<feBlend mode="normal" in="SourceGraphic" in2="effect1_dropShadow_16_160" result="shape"/>
</filter>
<filter id="filter1_d_16_160" x="114.176" y="168.168" width="10.3722" height="9.86304" filterUnits="userSpaceOnUse" color-interpolation-filters="sRGB">
<feFlood flood-opacity="0" result="BackgroundImageFix"/>
<feColorMatrix in="SourceAlpha" type="matrix" values="0 0 0 0 0 0 0 0 0 0 0 0 0 0 0 0 0 0 127 0" result="hardAlpha"/>
<feOffset dy="4"/>
<feGaussianBlur stdDeviation="2"/>
<feComposite in2="hardAlpha" operator="out"/>
<feColorMatrix type="matrix" values="0 0 0 0 0 0 0 0 0 0 0 0 0 0 0 0 0 0 0.25 0"/>
<feBlend mode="normal" in2="BackgroundImageFix" result="effect1_dropShadow_16_160"/>
<feBlend mode="normal" in="SourceGraphic" in2="effect1_dropShadow_16_160" result="shape"/>
</filter>
<filter id="filter2_d_16_160" x="121.13" y="168.168" width="10.3722" height="9.86304" filterUnits="userSpaceOnUse" color-interpolation-filters="sRGB">
<feFlood flood-opacity="0" result="BackgroundImageFix"/>
<feColorMatrix in="SourceAlpha" type="matrix" values="0 0 0 0 0 0 0 0 0 0 0 0 0 0 0 0 0 0 127 0" result="hardAlpha"/>
<feOffset dy="4"/>
<feGaussianBlur stdDeviation="2"/>
<feComposite in2="hardAlpha" operator="out"/>
<feColorMatrix type="matrix" values="0 0 0 0 0 0 0 0 0 0 0 0 0 0 0 0 0 0 0.25 0"/>
<feBlend mode="normal" in2="BackgroundImageFix" result="effect1_dropShadow_16_160"/>
<feBlend mode="normal" in="SourceGraphic" in2="effect1_dropShadow_16_160" result="shape"/>
</filter>
<filter id="filter3_d_16_160" x="115.13" y="93.1684" width="10.3722" height="9.86304" filterUnits="userSpaceOnUse" color-interpolation-filters="sRGB">
<feFlood flood-opacity="0" result="BackgroundImageFix"/>
<feColorMatrix in="SourceAlpha" type="matrix" values="0 0 0 0 0 0 0 0 0 0 0 0 0 0 0 0 0 0 127 0" result="hardAlpha"/>
<feOffset dy="4"/>
<feGaussianBlur stdDeviation="2"/>
<feComposite in2="hardAlpha" operator="out"/>
<feColorMatrix type="matrix" values="0 0 0 0 0 0 0 0 0 0 0 0 0 0 0 0 0 0 0.25 0"/>
<feBlend mode="normal" in2="BackgroundImageFix" result="effect1_dropShadow_16_160"/>
<feBlend mode="normal" in="SourceGraphic" in2="effect1_dropShadow_16_160" result="shape"/>
</filter>
<filter id="filter4_d_16_160" x="115.176" y="86.1684" width="10.3722" height="9.86304" filterUnits="userSpaceOnUse" color-interpolation-filters="sRGB">
<feFlood flood-opacity="0" result="BackgroundImageFix"/>
<feColorMatrix in="SourceAlpha" type="matrix" values="0 0 0 0 0 0 0 0 0 0 0 0 0 0 0 0 0 0 127 0" result="hardAlpha"/>
<feOffset dy="4"/>
<feGaussianBlur stdDeviation="2"/>
<feComposite in2="hardAlpha" operator="out"/>
<feColorMatrix type="matrix" values="0 0 0 0 0 0 0 0 0 0 0 0 0 0 0 0 0 0 0.25 0"/>
<feBlend mode="normal" in2="BackgroundImageFix" result="effect1_dropShadow_16_160"/>
<feBlend mode="normal" in="SourceGraphic" in2="effect1_dropShadow_16_160" result="shape"/>
</filter>
<filter id="filter5_d_16_160" x="122.176" y="93.1684" width="10.3722" height="9.86304" filterUnits="userSpaceOnUse" color-interpolation-filters="sRGB">
<feFlood flood-opacity="0" result="BackgroundImageFix"/>
<feColorMatrix in="SourceAlpha" type="matrix" values="0 0 0 0 0 0 0 0 0 0 0 0 0 0 0 0 0 0 127 0" result="hardAlpha"/>
<feOffset dy="4"/>
<feGaussianBlur stdDeviation="2"/>
<feComposite in2="hardAlpha" operator="out"/>
<feColorMatrix type="matrix" values="0 0 0 0 0 0 0 0 0 0 0 0 0 0 0 0 0 0 0.25 0"/>
<feBlend mode="normal" in2="BackgroundImageFix" result="effect1_dropShadow_16_160"/>
<feBlend mode="normal" in="SourceGraphic" in2="effect1_dropShadow_16_160" result="shape"/>
</filter>
</defs>
</svg>
